<?xml version="1.0" encoding="UTF-8"?><svg id="Layer_1" xmlns="http://www.w3.org/2000/svg" viewBox="0 0 816.95 229.55"><defs><style>.cls-1{fill:#fffffd;}.cls-2{fill:#120f20;}.cls-3{fill:#ffdd01;}</style></defs><path class="cls-3" d="m409.12,229.46c-122.98,0-245.96-.08-368.94.1-16.96.02-29.25-6.83-37.1-21.65-1.87-3.53-2.96-7.57-2.96-11.65C.06,143.4.16,90.54,0,37.68-.04,24.36,5.65,13.81,15.62,6.08,20.8,2.05,27.91.2,34.93.04c1.5-.04,3-.03,4.5-.03C286.02,0,532.6,0,779.19,0c8.92,0,16.91,2.45,24.02,8.04,9.18,7.22,13.27,16.91,13.55,28.15.37,15.36.11,30.74.1,46.11,0,36.24-.25,72.48.09,108.72.18,19.7-12.6,34.75-31.77,38.34-1.93.36-3.99.09-5.99.09-123.35,0-246.71,0-370.06,0Zm269.56-95.92c-.15,4.45,2.14,7.47,5.04,9.76,2.17,1.72,4.6,4.3,7.63,3.57,4.88-1.18,10.2-2.06,13.81-5.86,2.7-2.84,3.79-1.84,5.84.53,1.6,1.84,2.33,5.06,5.91,4.72,2.85-.27,5.93.48,8.56-.34,9.93-3.09,14.68-11.2,18.25-20.17.72-1.81.09-3.76-1.98-4.1-1.63-.26-3.81-1.25-4.56,2.04-1.36,5.96-5.17,10.41-10.51,13.33-5.82,3.18-10.89.55-11.28-5.54-.13-2.1.22-3.39,2.74-3.27,2.06.1,3.86-.86,5.53-2,6.94-4.78,8.57-11.74,8.39-19.64-.09-3.77-1.28-6.69-4.75-8.06-4.85-1.91-10.38.04-13.68,4.35-4.61,6.01-5.86,13.16-6.31,20.36-.48,7.7-7.58,14.97-15.24,14.76-3.34-.09-5.46-2.49-5.78-6.78-.24-3.27,2.34-2.74,4.32-3.07.83-.13,1.63-.56,2.39-.94,8.61-4.27,11.58-14.8,10.13-22.65-.5-2.72-2.16-5.41-5.27-6.27-5.14-1.42-10.12.2-13.18,4.66-2.05,3-4.16,6-4.62,9.93-.37,3.13-1.66,6.15-1.34,9.41.11,1.15-.56,1.77-1.37,2.46-4.45,3.76-9.54,6.17-15.15,7.69-1.69.46-2.48-.53-2.14-1.51,1.76-5.17.86-10.55,1.57-15.77,1.4-10.28,2.37-20.6,2.8-30.96.07-1.78-.17-3.28-2.52-3.24-2.35.04-5.13-.33-5.61,2.79-1.52,9.84-2.74,19.74-3,29.71-.26,10.2-2.81,14.03-12.4,17.47-6.26,2.25-7.51,1.24-6.42-5.39,2.16-13.16,2.84-26.46,3.74-39.74.13-1.92,1.17-4.44-2.19-4.78-2.92-.29-5.59.03-6.04,3.72-.79,6.46-1.96,12.91-2.13,19.39-.16,6.19-1.6,12.22-1.63,18.4-.01,2.32-2.2,1.86-3.73,1.95-2.18.13-1.7-1.51-1.41-2.56,1.33-4.84.68-9.54-.65-14.26-1.78-6.32-5.62-10.4-12.8-8-.9.3-1.99.18-2.98.08-4.42-.45-8.01,1.42-11.23,4.09-4.46,3.7-6.68,8.78-8.41,14.16-.9,2.78-.2,5.87-2.01,8.49-3.06,4.41-7.18,7.18-12.31,8.41-4.16,1-7.43-.99-8.72-5.04-2.41-7.53-.38-14.53,2.62-21.38.67-1.52,1.88-2.5,3.83-2.59-.25,2.19.27,4.16-.49,6.33-.94,2.67,1.22,4.52,3.41,5.4,2.03.82,3.65-.13,4.76-2.36,1.95-3.91,1.18-7.97,1.27-11.99.01-.52-.45-1.16-.87-1.56-5.86-5.58-13.93-4.7-18,1.52-6.36,9.72-7.61,20.38-3.97,31.2,1.45,4.3,4.82,7.91,10.45,8.21,7.08.37,12.76-2.64,18.06-6.65,2.24-1.7,3.55-1.93,5.12.69,1.78,2.97,4.51,5.16,7.9,5.78,8.15,1.48,15.24-.56,20.18-7.61,2.21-3.15,5.58-1.81,8.35-2.72.74-.25.84.73.84,1.34,0,1.37.01,2.74-.08,4.11-.64,8.98-1.9,17.96.86,26.86,1.78,5.73,6.2,9.63,11.26,9.57,3.88-.05,8.15-4.36,9.76-9.53,2.85-9.16,1.9-17.87-2.77-26.25,2.35-1.3,4.61-2.54,7.17-3.96-1.25,7.63-.58,14.93-.67,22.22-.05,4.61,1.08,8.97,3.65,12.9,2.22,3.39,7.03,5.01,10.9,3.91,5.67-1.62,8.82-8.66,9.39-15.25.6-6.99-.38-13.76-4.43-19.72,2.75-1.59,5.22-3.03,8.2-4.75ZM97.81,53.18c1.58-1.9,2.81-2.03,4.19-2.21,9.21-1.2,18.46-.66,27.69-.72,6.45-.05,12.78.65,19.08,2.16,2.69.64,3.76,2.1,4.22,4.47.53,2.74.63,5.65,1.67,8.17,1.28,3.1-.78,3.59-2.59,3.83-5.5.71-11.04,1.42-16.57,1.54-15.49.34-30.95.12-46.28-2.82-4.58-.88-9.7-.99-12.86,3.68-2.25,3.32-2.45,7.4-2.77,11.22-.54,6.55,2.66,10.52,9.06,11.86,11.6,2.42,23.39,3.27,35.19,3.83,10.8.51,21.59-.23,32.33-1.53,3.05-.37,3.93.66,3.76,3.91-.41,8.24-1.54,16.4-2.42,24.58-1.08,10.01-1.8,20.07-3.12,30.05-.7,5.27-.42,10.57-1.26,15.82-.74,4.6-2.54,6.87-7.18,8.23-7.67,2.26-15.52,1.49-23.29,1.39-11.59-.15-15.84-4.71-16.26-15.95-.22-6.02-1.26-12-1.87-18.01-.9-8.96-1.7-17.93-2.64-26.89-.57-5.48-1.35-10.93-2-16.4-.43-3.57-3.16-3.22-5.39-2.82-2.4.43-3.25,2.46-2.99,4.85.99,9.27,1.66,18.58,3.13,27.77.65,4.08.38,8.12.96,12.17,1.12,7.89,2.04,15.83,2.64,23.78.72,9.59,4.11,14.9,13.66,17.58,8.5,2.38,17.26,1.35,25.92,1.49,4.01.07,7.92-.7,11.69-2.05,5.46-1.95,9.32-5.47,11.03-11.21,2.16-7.26,1.96-14.83,2.76-22.24.71-6.61,1.23-13.31,1.97-19.9,1.26-11.37,2.32-22.76,3.49-34.14.25-2.43,1.06-3.61,3.18-4.21,2.15-.61,4.29-1.27,5.94-2.87,5.09-4.95,3.06-20.59-3.57-22.99-5.35-1.94-6.19-5.26-6.45-10.02-.53-9.43-3.06-12.28-12.33-14.55-3.22-.79-6.52-1.11-9.85-1.42-13.29-1.24-26.56-.86-39.8.28-4,.34-7.99,1.56-11.54,3.6-5.19,2.99-5.17,8.54-.02,11.6.85.5,1.82.8,2.73,1.2,8.3,3.6,17.27,3.39,25.99,4.36,8.66.96,17.3-.91,25.95-1.51,2.45-.17,4.24-1.9,4.01-4.89-.22-2.88-2.01-3.24-4.4-3.3-4.62-.12-9.25.39-13.72,1.01-10.37,1.44-20.3-.91-31.08-1.77Zm166.43,74.43c1.15,6.67.61,14.39,8.3,16.77,6.57,2.03,11.39-2.44,15.08-7.71,6.15,8.03,10.42,7.87,18.18-.6,3.59,4.83,8.28,5.86,13.86,4.09,4.02-1.28,7.42-3.48,10.42-6.37.74-.71,1.42-1.46,2.58-.89-.51.96.75,1.86-.04,2.98-.62.89-1.05,1.86-1.93,2.62-7.81,6.74-13.41,14.87-15.46,25.15-.81,4.08.39,7.65,3.51,10.26,2.99,2.49,6.35,4.03,10.49,2.21,4.72-2.07,7.4-5.82,8.89-10.42,2.13-6.58,3.5-13.35,3.12-20.33-.09-1.58.45-2.62,1.89-3.25,6.41-2.81,10.82-7.76,14.61-13.44,1.55-2.32.9-4.6-.84-5.91-1.75-1.31-3.87-.84-5.36,1.45-1.91,2.92-4.42,5.33-7.53,7.11-2.23,1.28-2.76.63-2.76-1.68-.02-7.06.37-14.08,2.36-20.87.77-2.61.98-4.76-1.74-5.91-2.78-1.18-5.36.31-6.58,3.6-2.1,5.68-3.97,11.45-7.34,16.55-2.43,3.68-5.15,7.09-9.54,8.57-2.69.91-4.75.66-5.78-2.67-.85-2.73-.87-5.4-.32-8.03,1.05-5,1.89-10.05,3.35-14.98.43-1.46.87-3.49-.99-4.79-1.49-1.03-3.15-1.06-4.65-.46-1.66.66-2.62,2.18-3.18,3.89-2.19,6.74-3.61,13.62-3.91,20.74-.11,2.54-1.49,4.72-3.04,6.71-.88,1.13-2.01,2.01-3.54,1.48-1.43-.49-1.49-1.82-1.58-3.1-.26-3.87.65-7.63,1.07-11.44.57-5.13,2.64-9.99,2.68-15.22.01-1.83-.5-3.25-2.28-3.85-1.78-.61-3.58-.4-4.74,1.21-1.06,1.48-2.47,3.14-2.59,4.8-.48,6.91-3.53,13.13-4.95,19.78-.67,3.13-2.44,6-4.58,8.5-1.01,1.18-2.32,2.03-3.96,1.56-1.68-.49-1.69-2.05-1.64-3.41.11-3.21-.15-6.4.43-9.64,1.12-6.28,3.2-12.4,3.34-18.86.05-2.34-1.14-3.63-3.15-3.92-2.1-.3-4.62.77-4.81,2.63-.28,2.74-1.46,5.16-1.79,7.86-.54,4.39-1.68,8.71-2.58,13.09-1.44-.59-1.15-1.68-1.25-2.65-.23-2.23-.93-4.28-2-6.3-1.45-2.71-5.92-3.86-5.76-6.04.19-2.68,2.86-5.31,3.28-8.48.05-.35.25-.67.35-1.02,2.05-6.91-2.09-13.94-9.1-15.8-4.58-1.22-9.07-.93-13.56.23-1.58.41-2.92,1.29-3.56-1.34-.43-1.79-2.38-2.04-4.07-1.88-1.96.18-3.43,1.32-3.62,3.23-.53,5.27-1.85,10.45-1.69,15.8.21,6.94-1.24,13.77-1.81,20.65-.51,6.22-1.1,12.44-1.26,18.68-.09,3.67,2.67,5.18,5.83,3.31,1.47-.87,2.71-1.02,4.21-.53,8.24,2.73,15.89.71,23.28-3.02,4.53-2.29,7.79-5.87,9.74-10.71Zm-140.68,49.25c4.14.71,8.17-.43,12.22-.85,3.89-.4,7.06-2.54,7.61-6.84.85-6.58,1.53-13.19,2.1-19.8.56-6.51,1.34-13,1.8-19.53.47-6.59.74-13.28,2.02-19.81.62-3.14-1.16-4.05-3.62-4.2-4.86-.3-9.7-.34-14.3,1.77-3.05,1.39-6.16,2.66-9.29,3.84-6.16,2.33-12.57,3.21-19.08,2.27-3.95-.57-4.67-.15-3.99,3.77,1.94,11.17,2.34,22.51,3.87,33.71.8,5.84.1,11.79,2,17.56,1.46,4.43,3.21,6.75,7.58,7.32,3.67.48,7.32,1.44,11.07.81Zm281.62-68.18c-1.14-1.97-1.9-4.01-3.27-5.51-4.58-5.01-12.65-6.56-18.81,1.5-.55.73-.95,2.04-2.2,1.67-1.13-.33-.44-1.48-.6-2.26-.53-2.58-1.99-3.98-4.72-3.55-2.57.41-3.59,1.88-3.65,4.6-.05,2.23,1.45,3.93,1.47,5.89.09,8.87.76,17.81-1.89,26.5-.99,3.24.22,5.8,2.87,6.44,2.9.69,6.24-.99,6.31-3.94.13-4.85,1.35-9.39,2.35-14.05,1.27-5.89,3.03-11.49,6.76-16.36,1.4-1.83,3.16-1.78,5.02-1.56,1.74.21,1.56,1.83,2.16,3,1.34,2.59,1.43,5.24,1.22,7.94-.2,2.67-.29,5.3-.94,8.02-.65,2.69-.02,6.17-.06,9.32-.03,2.44,2.22,2.97,4.23,3.18,2.04.22,4.07-.35,4.2-2.65.24-4.22,1.27-8.32,2.49-12.21,1.75-5.57,1.97-12.09,7.92-15.7,2.74-1.66,4.35-1.27,4.59,1.84.17,2.17-.09,4.35-.4,6.56-.93,6.81-3.12,13.59-1.07,20.64.99,3.4,6.05,8.06,9.15,7.43,3.53-.72,7.06-1.64,9.75-4.25,1.86-1.81,3.07-1.5,4.52.57,3.29,4.69,7.68,5.16,13.14,4.01,11.43-2.39,15.89-10.87,19.41-20.48.72-1.96-.15-3.41-1.93-3.64-1.65-.21-3.73-1.14-4.54,2.11-1.72,6.93-6.14,11.86-13.03,14.18-4.8,1.61-8.49-1.33-8.75-6.57-.1-1.97.34-2.95,2.56-3.12,4.54-.35,7.84-2.94,10.38-6.56,3.11-4.43,3.92-9.4,3.66-14.72-.22-4.59-1.85-7.71-5.03-8.65-4.32-1.27-10.98.47-13.01,3.52-4.4,6.59-6.29,14.05-6.64,21.8-.23,5.09-2.89,8.56-6.05,11.97-1.1,1.19-2.61,1.15-3.83.66-1.16-.46-1.56-1.79-1.49-3.13.05-1-.27-2.11.07-2.98,2.35-6.13,1.28-12.51,1.42-18.78.14-5.86-3.46-10.91-8.42-12.28-4.39-1.21-9.9,1.53-12.72,6.56-.64,1.14-1.34,2.06-2.64,3.02Zm118.28-1.47c.04-4.16-2.58-6.33-5.61-5.01-1.78.78-2.67.24-3.92-.55-5.02-3.18-10.76-2.92-15.14,1.25-8.06,7.66-11.4,17.34-9.69,28.19,1.72,10.9,11.3,13.91,19.62,6.65.19-.16.37-.34.54-.52,1.44-1.53,1.72-1.47,3.16.63,4.68,6.78,9.21,9.34,16.49,3.72,4.27-3.3,6.93-7.81,8.82-12.73.91-2.37,1.93-4.79,1.57-7.53-.24-1.87-1.36-2.74-2.92-2.78-1.61-.04-2.73.53-3.21,2.68-.98,4.4-2.16,8.81-5.53,12.28-1.89,1.95-4.04,2.91-6.33,2.01-2.11-.83-2.27-3.25-2.38-5.41-.22-4.38,1.34-8.46,2.1-12.67.68-3.73,1.74-7.39,2.42-10.22Z"/><path class="cls-2" d="m678.68,133.54c-2.98,1.73-5.45,3.16-8.2,4.75,4.05,5.96,5.03,12.73,4.43,19.72-.56,6.59-3.72,13.63-9.39,15.25-3.86,1.1-8.68-.52-10.9-3.91-2.58-3.93-3.71-8.29-3.65-12.9.09-7.29-.58-14.59.67-22.22-2.56,1.41-4.82,2.66-7.17,3.96,4.67,8.38,5.63,17.1,2.77,26.25-1.61,5.18-5.89,9.49-9.76,9.53-5.06.06-9.49-3.84-11.26-9.57-2.76-8.9-1.49-17.88-.86-26.86.1-1.36.08-2.74.08-4.11,0-.61-.09-1.58-.84-1.34-2.77.91-6.14-.43-8.35,2.72-4.94,7.05-12.03,9.09-20.18,7.61-3.39-.61-6.13-2.81-7.9-5.78-1.57-2.62-2.87-2.39-5.12-.69-5.3,4.01-10.98,7.02-18.06,6.65-5.63-.3-9-3.91-10.45-8.21-3.65-10.82-2.4-21.48,3.97-31.2,4.07-6.22,12.14-7.1,18-1.52.42.4.89,1.04.87,1.56-.1,4.02.67,8.09-1.27,11.99-1.11,2.23-2.73,3.18-4.76,2.36-2.19-.89-4.34-2.73-3.41-5.4.76-2.17.24-4.14.49-6.33-1.95.09-3.17,1.07-3.83,2.59-3,6.86-5.03,13.85-2.62,21.38,1.29,4.04,4.57,6.04,8.72,5.04,5.14-1.23,9.26-4.01,12.31-8.41,1.81-2.61,1.11-5.7,2.01-8.49,1.73-5.38,3.96-10.46,8.41-14.16,3.22-2.67,6.81-4.54,11.23-4.09.99.1,2.08.22,2.98-.08,7.18-2.39,11.02,1.68,12.8,8,1.33,4.72,1.98,9.41.65,14.26-.29,1.05-.76,2.7,1.41,2.56,1.53-.09,3.72.38,3.73-1.95.03-6.18,1.47-12.21,1.63-18.4.17-6.48,1.34-12.94,2.13-19.39.45-3.69,3.12-4.01,6.04-3.72,3.36.34,2.32,2.86,2.19,4.78-.9,13.28-1.57,26.58-3.74,39.74-1.09,6.62.16,7.64,6.42,5.39,9.59-3.44,12.13-7.27,12.4-17.47.26-9.96,1.48-19.87,3-29.71.48-3.12,3.26-2.75,5.61-2.79,2.36-.04,2.59,1.47,2.52,3.24-.43,10.37-1.4,20.68-2.8,30.96-.71,5.22.19,10.6-1.57,15.77-.33.98.45,1.97,2.14,1.51,5.6-1.52,10.7-3.92,15.15-7.69.81-.68,1.48-1.3,1.37-2.46-.32-3.25.97-6.28,1.34-9.41.46-3.93,2.57-6.94,4.62-9.93,3.05-4.46,8.04-6.08,13.18-4.66,3.12.86,4.77,3.55,5.27,6.27,1.45,7.85-1.52,18.38-10.13,22.65-.77.38-1.57.8-2.39.94-1.98.32-4.56-.2-4.32,3.07.32,4.29,2.44,6.68,5.78,6.78,7.66.22,14.76-7.06,15.24-14.76.45-7.2,1.7-14.35,6.31-20.36,3.3-4.31,8.83-6.26,13.68-4.35,3.47,1.37,4.66,4.3,4.75,8.06.18,7.9-1.45,14.86-8.39,19.64-1.67,1.15-3.47,2.1-5.53,2-2.51-.12-2.87,1.17-2.74,3.27.38,6.09,5.46,8.72,11.28,5.54,5.34-2.92,9.15-7.36,10.51-13.33.75-3.29,2.94-2.31,4.56-2.04,2.07.34,2.7,2.29,1.98,4.1-3.57,8.97-8.32,17.08-18.25,20.17-2.63.82-5.71.07-8.56.34-3.58.34-4.31-2.88-5.91-4.72-2.06-2.37-3.15-3.37-5.84-.53-3.61,3.81-8.93,4.68-13.81,5.86-3.04.74-5.46-1.85-7.63-3.57-2.9-2.29-5.19-5.31-5.04-9.76Zm-76.43-25.41c-6.84,3.05-11.29,13.22-9.13,20.17,2.48,7.95,8.79,9.66,14.46,3.97,1.53-1.53,1.76-2.62.08-4.3-5.43-5.41-7.36-11.92-5.41-19.85Zm30.77,44.81s-.03,0-.05,0c0,2,.09,4-.02,6-.13,2.3.35,4.63,2.68,5.09,2.59.51,3.95-1.45,4.32-4,.09-.58.58-1.1.73-1.68,1.39-5.42.62-10.49-2.72-15.04-.71-.97-1.67-1.9-3.16-1.56-1.63.37-1.52,2.1-1.64,2.96-.37,2.7-.14,5.48-.14,8.23Zm25.46,1.41c-.12,2.18.28,4.19.69,6.26.35,1.79.82,3.22,2.6,3.47,1.76.25,3.05-.91,3.82-2.47,1.66-3.36,1.37-6.97,1.29-10.56-.07-3.24-1.22-6.03-3.42-8.31-.96-1-3.05-2.16-3.33.04-.5,3.89-2.09,7.64-1.65,11.56Zm37.43-44.25c-1.08-.89.1-3.11-1.89-3.55-1.82-.41-2.58,1.06-3.47,2.25-2.21,2.96-2.37,6.64-3.5,9.97-.64,1.89.6,2.32,2.34,1.69,3.74-1.35,6.59-5.77,6.52-10.36Zm28.53.25c.06-1.35.15-3.25-1.67-3.78-1.69-.49-2.54,1.23-3.44,2.4-2.37,3.06-2.31,6.87-3.02,10.41-.37,1.86,1.02,1.43,2.16.99,3.79-1.47,5.95-4.96,5.97-10.01Zm-110.23,5.81c.56-1.52-.24-3.3-.73-5.03-.28-.99-.38-3.01-1.69-2.77-1.44.27-2.73,1.54-2.86,3.46-.19,2.73.78,5.09,1.98,7.43.44.87.61,2.22,1.77,2.1,1.28-.12,1.31-1.55,1.51-2.57.14-.72.03-1.49.03-2.63Z"/><path class="cls-2" d="m97.81,53.18c10.78.86,20.71,3.22,31.08,1.77,4.47-.62,9.11-1.13,13.72-1.01,2.39.06,4.19.42,4.4,3.3.22,2.99-1.57,4.72-4.01,4.89-8.65.6-17.29,2.47-25.95,1.51-8.72-.97-17.69-.75-25.99-4.36-.91-.4-1.88-.7-2.73-1.2-5.15-3.06-5.18-8.61.02-11.6,3.56-2.05,7.55-3.26,11.54-3.6,13.24-1.13,26.51-1.51,39.8-.28,3.33.31,6.63.63,9.85,1.42,9.27,2.27,11.8,5.12,12.33,14.55.27,4.76,1.11,8.08,6.45,10.02,6.63,2.4,8.67,18.04,3.57,22.99-1.65,1.61-3.79,2.27-5.94,2.87-2.12.6-2.93,1.78-3.18,4.21-1.18,11.38-2.23,22.77-3.49,34.14-.73,6.59-1.25,13.29-1.97,19.9-.8,7.41-.59,14.98-2.76,22.24-1.71,5.74-5.57,9.26-11.03,11.21-3.77,1.35-7.68,2.11-11.69,2.05-8.66-.14-17.42.89-25.92-1.49-9.54-2.67-12.94-7.99-13.66-17.58-.59-7.95-1.51-15.88-2.64-23.78-.58-4.05-.31-8.1-.96-12.17-1.47-9.19-2.14-18.51-3.13-27.77-.26-2.39.59-4.41,2.99-4.85,2.23-.4,4.96-.75,5.39,2.82.65,5.47,1.43,10.92,2,16.4.94,8.96,1.74,17.93,2.64,26.89.61,6.01,1.64,11.99,1.87,18.01.42,11.24,4.67,15.8,16.26,15.95,7.77.1,15.62.87,23.29-1.39,4.64-1.37,6.44-3.64,7.18-8.23.84-5.25.56-10.55,1.26-15.82,1.33-9.98,2.04-20.03,3.12-30.05.88-8.19,2.01-16.34,2.42-24.58.16-3.26-.71-4.28-3.76-3.91-10.74,1.3-21.52,2.05-32.33,1.53-11.8-.56-23.59-1.42-35.19-3.83-6.41-1.34-9.6-5.3-9.06-11.86.31-3.83.52-7.91,2.77-11.22,3.16-4.67,8.28-4.56,12.86-3.68,15.33,2.95,30.79,3.16,46.28,2.82,5.53-.12,11.07-.83,16.57-1.54,1.81-.23,3.86-.73,2.59-3.83-1.04-2.52-1.14-5.44-1.67-8.17-.46-2.37-1.53-3.83-4.22-4.47-6.3-1.51-12.63-2.21-19.08-2.16-9.23.06-18.48-.47-27.69.72-1.39.18-2.62.31-4.19,2.21Zm41.54,35.84c4.08.78,7.68-.67,11.42-.7,3.78-.03,7.57-.95,11.32-1.67,3.92-.76,4.43-2.01,3.84-7.87-.33-3.26-2.64-3.11-4.95-3.03-.87.03-1.77-.09-2.62.08-13.17,2.71-26.49,3.42-39.88,2.88-4.19-.17-8.36.05-12.59-.44-6.46-.74-12.86-2.1-19.35-2.46-3.98-.22-4.63.75-4.79,5.61-.12,3.88,1.06,4.94,4.71,5.55,3.3.56,6.64.4,9.9.94,7.2,1.19,14.47,1.62,21.72,1.99,7.19.37,14.42.41,21.26-.87Z"/><path class="cls-2" d="m264.25,127.61c-1.94,4.83-5.2,8.42-9.74,10.71-7.39,3.73-15.04,5.75-23.28,3.02-1.5-.5-2.74-.34-4.21.53-3.16,1.87-5.92.36-5.83-3.31.16-6.23.75-12.46,1.26-18.68.56-6.88,2.02-13.72,1.81-20.65-.16-5.35,1.16-10.53,1.69-15.8.19-1.91,1.66-3.05,3.62-3.23,1.7-.16,3.64.09,4.07,1.88.63,2.63,1.98,1.75,3.56,1.34,4.49-1.16,8.98-1.44,13.56-.23,7.01,1.86,11.15,8.89,9.1,15.8-.1.34-.31.67-.35,1.02-.42,3.17-3.09,5.8-3.28,8.48-.16,2.18,4.31,3.33,5.76,6.04,1.07,2.01,1.77,4.07,2,6.3.1.97-.19,2.06,1.25,2.65.89-4.38,2.03-8.7,2.58-13.09.33-2.7,1.51-5.12,1.79-7.86.19-1.87,2.71-2.93,4.81-2.63,2.01.29,3.2,1.58,3.15,3.92-.14,6.47-2.22,12.58-3.34,18.86-.58,3.24-.32,6.43-.43,9.64-.05,1.35-.04,2.91,1.64,3.41,1.63.48,2.95-.38,3.96-1.56,2.14-2.49,3.91-5.37,4.58-8.5,1.42-6.65,4.46-12.87,4.95-19.78.12-1.66,1.53-3.32,2.59-4.8,1.16-1.61,2.96-1.82,4.74-1.21,1.77.6,2.29,2.02,2.28,3.85-.04,5.23-2.11,10.09-2.68,15.22-.42,3.81-1.34,7.57-1.07,11.44.09,1.28.15,2.61,1.58,3.1,1.53.52,2.66-.35,3.54-1.48,1.54-1.99,2.93-4.17,3.04-6.71.3-7.12,1.72-13.99,3.91-20.74.56-1.71,1.52-3.23,3.18-3.89,1.5-.6,3.16-.58,4.65.46,1.86,1.3,1.42,3.33.99,4.79-1.46,4.93-2.3,9.97-3.35,14.98-.55,2.63-.53,5.3.32,8.03,1.03,3.33,3.09,3.58,5.78,2.67,4.39-1.48,7.11-4.89,9.54-8.57,3.37-5.11,5.24-10.88,7.34-16.55,1.22-3.29,3.8-4.78,6.58-3.6,2.72,1.16,2.51,3.3,1.74,5.91-1.99,6.79-2.38,13.81-2.36,20.87,0,2.31.53,2.96,2.76,1.68,3.11-1.78,5.61-4.19,7.53-7.11,1.5-2.28,3.61-2.76,5.36-1.45,1.74,1.3,2.39,3.59.84,5.91-3.79,5.68-8.2,10.63-14.61,13.44-1.43.63-1.97,1.67-1.89,3.25.38,6.99-.99,13.75-3.12,20.33-1.49,4.6-4.18,8.35-8.89,10.42-4.14,1.82-7.5.29-10.49-2.21-3.12-2.6-4.33-6.18-3.51-10.26,2.05-10.28,7.65-18.41,15.46-25.15.88-.76,1.31-1.72,1.93-2.62.78-1.12-.48-2.02.04-2.98-1.16-.57-1.84.17-2.58.89-3,2.9-6.41,5.1-10.42,6.37-5.57,1.77-10.27.75-13.86-4.09-7.76,8.47-12.03,8.63-18.18.6-3.69,5.27-8.51,9.74-15.08,7.71-7.69-2.38-7.15-10.1-8.3-16.77Zm-19.76-12.12c-1.37,0-2.74.02-4.11,0-3.26-.06-6.61.5-9.22,2.16-2.05,1.3-.43,4.41-.91,6.66-.33,1.55-.63,3.11-.84,4.7-.5,3.69.83,5.35,4.5,6.08,6.67,1.32,12.25-1,17.56-4.51,1.44-.95,2.57-2.34,3.4-3.9,1.37-2.57,1.5-5.35.22-7.84-1.34-2.62-3.76-3.82-6.87-3.38-1.22.18-2.49.03-3.73.04Zm-9.15-7.51c4.73-.54,9.39-1.47,13.53-4.2,3.56-2.35,2.73-5.83,2.55-9.17-.11-2.08-1.63-3.31-3.26-3.65-4.6-.98-9.19-.81-13.62,1.19-1.59.72-2.1,1.67-2.11,3.4,0,3.06.33,6.13-.57,9.2-.79,2.73.58,3.91,3.47,3.24Zm88.64,56.36c.03,2.04-.4,3.7,1.01,4.1,1.45.41,2.75-.69,3.58-1.94,3.07-4.59,3.57-9.95,4.41-15.21.1-.66-.14-1.23-.7-1.59-.75-.48-1.18.24-1.49.61-3.61,4.33-6.14,9.17-6.8,14.03Z"/><path class="cls-1" d="m123.56,176.86c-3.75.64-7.4-.33-11.07-.81-4.37-.57-6.12-2.89-7.58-7.32-1.91-5.76-1.21-11.72-2-17.56-1.53-11.2-1.93-22.54-3.87-33.71-.68-3.92.04-4.34,3.99-3.77,6.52.94,12.92.05,19.08-2.27,3.13-1.18,6.25-2.45,9.29-3.84,4.6-2.1,9.44-2.07,14.3-1.77,2.46.15,4.24,1.06,3.62,4.2-1.28,6.53-1.55,13.22-2.02,19.81-.47,6.53-1.24,13.02-1.8,19.53-.57,6.61-1.26,13.22-2.1,19.8-.55,4.31-3.73,6.44-7.61,6.84-4.05.42-8.07,1.57-12.22.85Z"/><path class="cls-2" d="m405.19,108.68c1.3-.96,2-1.88,2.64-3.02,2.82-5.03,8.33-7.77,12.72-6.56,4.96,1.37,8.55,6.42,8.42,12.28-.14,6.27.93,12.65-1.42,18.78-.33.87-.01,1.98-.07,2.98-.07,1.34.33,2.67,1.49,3.13,1.22.49,2.73.52,3.83-.66,3.16-3.41,5.82-6.88,6.05-11.97.35-7.76,2.24-15.21,6.64-21.8,2.03-3.05,8.7-4.79,13.01-3.52,3.18.94,4.81,4.06,5.03,8.65.26,5.32-.55,10.29-3.66,14.72-2.54,3.61-5.84,6.21-10.38,6.56-2.21.17-2.66,1.15-2.56,3.12.26,5.24,3.95,8.18,8.75,6.57,6.89-2.32,11.31-7.25,13.03-14.18.81-3.26,2.89-2.32,4.54-2.11,1.78.23,2.65,1.68,1.93,3.64-3.52,9.61-7.98,18.09-19.41,20.48-5.46,1.14-9.85.68-13.14-4.01-1.45-2.07-2.66-2.38-4.52-.57-2.69,2.61-6.22,3.53-9.75,4.25-3.11.63-8.16-4.03-9.15-7.43-2.06-7.06.14-13.83,1.07-20.64.3-2.22.57-4.39.4-6.56-.25-3.1-1.86-3.5-4.59-1.84-5.95,3.61-6.17,10.13-7.92,15.7-1.23,3.9-2.25,7.99-2.49,12.21-.13,2.31-2.16,2.87-4.2,2.65-2.01-.21-4.26-.74-4.23-3.18.04-3.15-.59-6.63.06-9.32.65-2.73.74-5.35.94-8.02.2-2.7.12-5.35-1.22-7.94-.61-1.17-.42-2.79-2.16-3-1.86-.22-3.61-.27-5.02,1.56-3.73,4.87-5.49,10.46-6.76,16.36-1,4.65-2.22,9.2-2.35,14.05-.08,2.96-3.42,4.64-6.31,3.94-2.65-.63-3.86-3.2-2.87-6.44,2.65-8.69,1.98-17.62,1.89-26.5-.02-1.96-1.52-3.66-1.47-5.89.06-2.72,1.08-4.19,3.65-4.6,2.73-.43,4.19.97,4.72,3.55.16.77-.53,1.93.6,2.26,1.25.37,1.65-.94,2.2-1.67,6.16-8.06,14.23-6.52,18.81-1.5,1.36,1.49,2.13,3.54,3.27,5.51Zm51.27,2.03c-.74-1.43-.2-3.56-2.01-4.13-1.78-.56-2.58,1.11-3.45,2.26-2.21,2.92-2.38,6.53-3.16,9.91-.45,1.95.74,2.25,2.43,1.57,3.31-1.33,6.22-5.81,6.19-9.61Z"/><path class="cls-2" d="m523.46,107.21c-.68,2.83-1.75,6.49-2.42,10.22-.76,4.21-2.32,8.29-2.1,12.67.11,2.16.26,4.58,2.38,5.41,2.29.9,4.44-.06,6.33-2.01,3.37-3.48,4.55-7.88,5.53-12.28.48-2.15,1.59-2.72,3.21-2.68,1.56.04,2.68.91,2.92,2.78.36,2.74-.66,5.16-1.57,7.53-1.88,4.92-4.55,9.43-8.82,12.73-7.28,5.63-11.81,3.07-16.49-3.72-1.45-2.09-1.72-2.16-3.16-.63-.17.18-.35.35-.54.52-8.33,7.25-17.9,4.25-19.62-6.65-1.71-10.85,1.63-20.54,9.69-28.19,4.38-4.16,10.12-4.42,15.14-1.25,1.24.79,2.14,1.32,3.92.55,3.04-1.33,5.65.85,5.61,5.01Zm-25.48,18.21c0,1.18.02,2.05,0,2.92-.05,1.5-.23,3.1,1.38,3.96,1.79.96,3.42.22,4.86-.85,1.51-1.12,2.59-2.61,3.57-4.24,2.31-3.82,2.43-8.24,3.75-12.32,1.64-5.11.54-6.61-4.85-6.18-2.48.2-3.79,1.89-4.84,3.67-2.41,4.09-4.32,8.4-3.86,13.04Z"/><path class="cls-3" d="m602.25,108.13c-1.95,7.92-.02,14.44,5.41,19.85,1.68,1.68,1.45,2.76-.08,4.3-5.67,5.68-11.98,3.98-14.46-3.97-2.17-6.95,2.29-17.13,9.13-20.17Z"/><path class="cls-3" d="m633.02,152.93c0-2.75-.23-5.53.14-8.23.12-.86.01-2.59,1.64-2.96,1.49-.34,2.44.59,3.16,1.56,3.34,4.55,4.12,9.61,2.72,15.04-.15.59-.65,1.1-.73,1.68-.37,2.55-1.73,4.5-4.32,4-2.32-.45-2.81-2.78-2.68-5.09.11-1.99.02-4,.02-6,.02,0,.03,0,.05,0Z"/><path class="cls-3" d="m658.48,154.34c-.45-3.93,1.14-7.68,1.65-11.56.28-2.2,2.37-1.03,3.33-.04,2.2,2.28,3.35,5.07,3.42,8.31.08,3.59.37,7.2-1.29,10.56-.77,1.56-2.05,2.73-3.82,2.47-1.78-.26-2.25-1.68-2.6-3.47-.41-2.07-.81-4.08-.69-6.26Z"/><path class="cls-3" d="m695.91,110.1c.07,4.59-2.78,9-6.52,10.36-1.74.63-2.98.2-2.34-1.69,1.13-3.33,1.29-7.02,3.5-9.97.89-1.19,1.65-2.65,3.47-2.25,1.99.44.81,2.66,1.89,3.55Z"/><path class="cls-3" d="m724.44,110.35c-.02,5.04-2.18,8.54-5.97,10.01-1.15.45-2.54.88-2.16-.99.71-3.54.65-7.35,3.02-10.41.9-1.16,1.76-2.89,3.44-2.4,1.83.53,1.73,2.44,1.67,3.78Z"/><path class="cls-3" d="m614.21,116.16c0,1.14.12,1.91-.03,2.63-.2,1.01-.23,2.44-1.51,2.57-1.16.11-1.32-1.23-1.77-2.1-1.19-2.34-2.17-4.69-1.98-7.43.14-1.93,1.42-3.2,2.86-3.46,1.31-.25,1.41,1.78,1.69,2.77.49,1.73,1.29,3.51.73,5.03Z"/><path class="cls-3" d="m139.36,89.02c-6.84,1.28-14.07,1.24-21.26.87-7.25-.38-14.52-.81-21.72-1.99-3.26-.54-6.6-.38-9.9-.94-3.65-.61-4.83-1.68-4.71-5.55.15-4.86.8-5.83,4.79-5.61,6.49.36,12.89,1.72,19.35,2.46,4.23.49,8.41.27,12.59.44,13.39.55,26.71-.17,39.88-2.88.84-.17,1.74-.05,2.62-.08,2.32-.07,4.63-.22,4.95,3.03.59,5.86.08,7.11-3.84,7.87-3.75.72-7.54,1.64-11.32,1.67-3.74.03-7.34,1.48-11.42.7Z"/><path class="cls-3" d="m244.49,115.48c1.24,0,2.51.15,3.73-.03,3.11-.45,5.52.75,6.87,3.38,1.28,2.49,1.15,5.27-.22,7.84-.83,1.56-1.96,2.94-3.4,3.9-5.31,3.52-10.89,5.83-17.56,4.51-3.67-.73-4.99-2.39-4.5-6.08.21-1.59.51-3.15.84-4.7.48-2.26-1.14-5.36.91-6.66,2.61-1.66,5.96-2.21,9.22-2.16,1.37.02,2.74,0,4.11,0Z"/><path class="cls-3" d="m235.34,107.98c-2.88.67-4.26-.51-3.47-3.24.89-3.07.56-6.14.57-9.2,0-1.73.51-2.68,2.11-3.4,4.42-2,9.01-2.17,13.62-1.19,1.63.35,3.15,1.57,3.26,3.65.18,3.34,1,6.82-2.55,9.17-4.14,2.74-8.8,3.66-13.53,4.2Z"/><path class="cls-3" d="m323.98,164.33c.66-4.86,3.19-9.7,6.8-14.03.31-.37.75-1.09,1.49-.61.57.36.81.94.7,1.59-.84,5.25-1.33,10.61-4.41,15.21-.84,1.25-2.13,2.35-3.58,1.94-1.41-.4-.98-2.06-1.01-4.1Z"/><path class="cls-3" d="m456.45,110.7c.03,3.8-2.88,8.28-6.19,9.61-1.69.68-2.88.38-2.43-1.57.78-3.38.95-6.99,3.16-9.91.87-1.15,1.67-2.82,3.45-2.26,1.81.57,1.27,2.7,2.01,4.13Z"/><path class="cls-3" d="m497.99,125.42c-.45-4.65,1.45-8.95,3.86-13.04,1.05-1.78,2.36-3.47,4.84-3.67,5.39-.44,6.49,1.07,4.85,6.18-1.31,4.08-1.44,8.5-3.75,12.32-.99,1.63-2.06,3.12-3.57,4.24-1.44,1.07-3.07,1.81-4.86.85-1.61-.86-1.43-2.45-1.38-3.96.03-.87,0-1.75,0-2.92Z"/></svg>