<?xml version="1.0" encoding="utf-8"?>
<!-- Generator: Adobe Illustrator 27.1.1, SVG Export Plug-In . SVG Version: 6.00 Build 0)  -->
<svg version="1.1" id="Layer_1" xmlns="http://www.w3.org/2000/svg" xmlns:xlink="http://www.w3.org/1999/xlink" x="0px" y="0px"
	 width="522.6px" height="147.7px" viewBox="0 0 522.6 147.7" style="enable-background:new 0 0 522.6 147.7;" xml:space="preserve"
	>
<style type="text/css">
	.st0{fill:none;stroke:#FFFFFF;stroke-width:7;stroke-miterlimit:10;}
	.st1{fill:#FFFFFF;}
</style>
<circle class="st0" cx="192.5" cy="54.8" r="51.3"/>
<g>
	<path class="st1" d="M177.4,48.9c0-7,5.2-11.6,12.7-11.6h4.7c7.5,0,12.7,4.6,12.7,11.6v13.3c0,1.6-1.3,3-2.9,3s-3-1.3-3-3V50.3
		c0-0.5-0.4-0.9-0.9-0.9s-0.9,0.4-0.9,0.9v36.2c0,1.8-1.4,3.2-3.2,3.2s-3.2-1.4-3.2-3.2V64.4c0-0.5-0.4-0.9-0.9-0.9
		s-0.9,0.4-0.9,0.9v22.1c0,1.8-1.4,3.2-3.2,3.2c-1.8,0-3.2-1.4-3.2-3.2V50.3c0-0.5-0.4-0.9-0.9-0.9s-0.9,0.4-0.9,0.9v11.9
		c0,1.6-1.3,3-3,3c-1.6,0-3-1.3-3-3V48.9z M185.5,27c0-3.8,3.1-7,7-7s7,3.1,7,7s-3.1,6.9-7,6.9S185.5,30.9,185.5,27z"/>
</g>
<circle class="st0" cx="330.1" cy="54.8" r="51.3"/>
<g>
	<path class="st1" d="M330,89.5c-1.5,0-2.7-1.1-2.7-2.7v-4.1c-9.7-0.7-16-5.6-17.8-11.7c-0.3-0.8-0.5-1.6-0.5-2.4
		c0-2.8,1.9-4.7,5-4.7c2.4,0,4,1.2,5,3.6c1,3.3,3.8,5.8,8.3,6.4V59l-1.7-0.4c-10.5-2.4-16-7.2-16-15.5c0-9,7.5-15.2,17.8-16v-4.1
		c0-1.6,1.1-2.7,2.7-2.7s2.7,1.1,2.7,2.7V27c9,0.8,15.2,5.5,16.9,11.7c0.2,0.8,0.4,1.6,0.4,2.4c0,2.6-1.9,4.4-4.8,4.4
		c-2.3,0-3.9-1.2-5.1-3.4c-1.1-3.3-3.7-5.4-7.4-6v14l2.1,0.4c11,2.2,16.5,7.1,16.5,15.6c0,9.6-7.7,15.7-18.5,16.5v4.1
		C332.7,88.4,331.6,89.5,330,89.5z M327.4,48.8V35.9c-4.4,0.6-7.3,3.1-7.3,6.4c0,3.1,2.2,5.1,6.8,6.4L327.4,48.8z M332.7,60.2v13.5
		c5.2-0.6,8.1-3.1,8.1-6.8c0-3.3-2-5.3-7-6.6L332.7,60.2z"/>
</g>
<circle class="st0" cx="467.8" cy="54.8" r="51.3"/>
<g>
	<path class="st1" d="M445.3,38.5h45v10.8h-45V38.5z M445.3,60.3h45v10.8h-45V60.3z"/>
</g>
<circle class="st0" cx="54.8" cy="54.8" r="51.3"/>
<g>
	<path class="st1" d="M18.9,54.8L18.9,54.8c0-12.1,6.9-19.3,17.8-19.3c9.1,0,15.6,5.7,16.3,13.6l0,0.2h-7.6L45.3,49
		c-0.9-4.1-3.9-6.8-8.6-6.8c-6,0-9.8,4.8-9.8,12.6v0c0,7.9,3.8,12.7,9.8,12.7c4.5,0,7.7-2.6,8.7-7l0.1-0.3H53l0,0.3
		c-0.7,7.9-7.3,13.6-16.3,13.6C25.8,74.2,18.9,66.9,18.9,54.8z"/>
	<path class="st1" d="M56.7,54.8L56.7,54.8c0-12.1,6.9-19.3,17.8-19.3c9.1,0,15.6,5.7,16.3,13.6l0,0.2h-7.6L83,49
		c-0.9-4.1-3.9-6.8-8.6-6.8c-6,0-9.8,4.8-9.8,12.6v0c0,7.9,3.8,12.7,9.8,12.7c4.5,0,7.7-2.6,8.7-7l0.1-0.3h7.6l0,0.3
		c-0.7,7.9-7.3,13.6-16.3,13.6C63.5,74.2,56.7,66.9,56.7,54.8z"/>
</g>
<g>
	<path class="st1" d="M171.2,121.9h11c4.8,0,7.8,2.5,7.8,6.4v0c0,2.8-2.1,5.2-4.9,5.5v0.1c3.5,0.3,6.1,2.8,6.1,6.1v0
		c0,4.4-3.4,7.2-8.8,7.2h-11.2V121.9z M176.5,125.8v6.7h3.7c3,0,4.6-1.2,4.6-3.4v0c0-2-1.5-3.2-3.9-3.2H176.5z M176.5,136.1v7.2h4.6
		c3,0,4.7-1.2,4.7-3.6v0c0-2.3-1.7-3.6-4.9-3.6H176.5z"/>
	<path class="st1" d="M200.9,137.8l-8.8-15.9h5.7l5.7,10.8h0.1l5.7-10.8h5.7l-8.8,15.9v9.5h-5.3V137.8z"/>
	<path class="st1" d="M310.2,121.9h4.6l11.5,16.5h0.1v-16.5h5.3v25.4h-4.6l-11.5-16.6h-0.1v16.6h-5.3V121.9z"/>
	<path class="st1" d="M335.1,134.5L335.1,134.5c0-8.2,4.7-13.1,12.1-13.1c6.2,0,10.6,3.9,11.1,9.3l0,0.2h-5.2l-0.1-0.3
		c-0.6-2.8-2.7-4.6-5.8-4.6c-4.1,0-6.7,3.3-6.7,8.6v0c0,5.3,2.6,8.6,6.7,8.6c3.1,0,5.2-1.8,5.9-4.8l0-0.2h5.2l0,0.2
		c-0.5,5.4-4.9,9.2-11.1,9.2C339.8,147.7,335.1,142.7,335.1,134.5z"/>
	<path class="st1" d="M447,121.9h4.6l11.5,16.5h0.1v-16.5h5.3v25.4h-4.6l-11.5-16.6h-0.1v16.6H447V121.9z"/>
	<path class="st1" d="M472.7,121.9h9.7c7.6,0,12.1,4.5,12.1,12.6v0c0,8.1-4.5,12.8-12.1,12.8h-9.7V121.9z M481.8,142.8
		c4.7,0,7.3-2.9,7.3-8.4v0c0-5.3-2.7-8.2-7.3-8.2H478v16.6H481.8z"/>
</g>
</svg>
