<?xml version="1.0" encoding="utf-8"?>
<!-- Generator: Adobe Illustrator 27.1.1, SVG Export Plug-In . SVG Version: 6.00 Build 0)  -->
<svg version="1.1" id="Layer_1" xmlns="http://www.w3.org/2000/svg" xmlns:xlink="http://www.w3.org/1999/xlink" x="0px" y="0px"
	 width="680.4px" height="272.2px" viewBox="0 0 680.4 272.2" style="enable-background:new 0 0 680.4 272.2;" xml:space="preserve"
	>
<style type="text/css">
	.st0{fill:#D73526;}
	.st1{fill:#FFFFFF;}
	.st2{fill:#832310;}
</style>
<g>
	<path class="st0" d="M0.3,0c226.3,0,452.7,0,679,0c0.9,0,1.1,0.2,1.1,1.1c0,90.3,0,180.5,0,270.8c-0.1,0-0.1,0-0.2-0.1
		c0-4.9,0-9.8-0.1-14.7c0-2.5,0.3-2.2-2.2-2.2c-225.9,0-451.7,0-677.6,0c0-0.5,0-1,0-1.4C0.3,169,0.3,84.5,0.3,0z M595.7,108.8
		c-0.9-1.3-2-2-3-2.7c-3.9-2.9-8.3-4.3-13.1-4.2c-3.2,0-6.4-0.1-9.5,0.2c-2.8,0.2-5.5,0.8-8.1,2c-3.2,1.5-5.8,3.8-8.5,6
		c-1.8,1.5-3.5,3.1-4.9,5c-2.4,3.2-3.2,6.9-3.3,10.8c-0.1,7.5-0.1,15,0,22.5c0,2.9-0.2,5.7,0.3,8.6c0.3,1.8,0.8,3.5,1.5,5.1
		c1.1,2.5,3,4.4,4.9,6.3c2,2,4.3,3.7,6.6,5.4c3.4,2.5,7.3,3.8,11.4,4c3.5,0.2,6.9,0,10.4,0.1c4.5,0.1,8.5-1.4,12-4.1
		c1-0.8,2-1.6,3.2-2.5c0,4.4-0.1,8.6,0,12.8c0.2,5.8-3.6,9-8.2,11c-1.8,0.8-3.8,0.8-5.8,0.8c-6.7,0-13.4,0-20.1,0
		c-1.9,0-3.8,0.2-5.6,0.8c-1.5,0.5-2.7,1.4-3.5,2.8c-1.3,2.3-1.5,4.8-0.8,7.3c0.5,1.9,1.6,3.4,3.6,4.2c1.8,0.8,3.7,1.1,5.7,1.1
		c8,0,16,0,24,0c4.8,0,9.3-1.1,13.3-3.9c2.7-1.9,5.2-4,7.6-6.3c2.6-2.4,4.5-5.1,5.3-8.6c0.6-2.5,0.8-5.1,0.8-7.7
		c0-24.6,0-49.2,0-73.8c0-1.4-0.1-2.8-0.4-4.2c-0.5-2.5-1.6-4.8-4.3-5.9c-0.9-0.4-1.8-0.5-2.7-0.6c-2.4-0.2-4.8,0-6.6,2
		C596.7,104.7,596.2,106.6,595.7,108.8z M359.7,118.2c-2.6,2.7-5,5.2-7.5,7.7c-4.8,5-9.8,9.8-14.6,14.9c-3.1,3.3-6.3,6.4-9.4,9.7
		c-2.9,3.1-6,5.9-8.7,9.2c-1.7,2.1-3,4.4-3.2,7.2c-0.3,3.4,0.4,6.4,3.1,8.8c1.6,1.4,3.4,2.2,5.4,2.3c13.6,0,27.3,0,40.9,0
		c0.6,0,0.9,0.2,1.2,0.7c0.9,1.4,2.1,2.6,3.3,3.5c3.1,2.3,6.7,3.5,10.7,3.1c4.3-0.4,7.9-2.2,10.7-5.5c3.4-4,4.4-8.7,3.2-13.7
		c-1.2-5.1-4.4-8.6-9.2-10.7c-2.5-1-5.1-1.3-7.8-1.1c-4.4,0.4-7.9,2.4-10.5,6c-0.7,1-1.5,1.5-2.9,1.5c-7.6-0.1-15.1,0-22.7,0
		c-0.4,0-0.8,0-1.3,0c0.1-0.7,0.5-0.9,0.8-1.2c2.2-2.3,4.4-4.6,6.7-6.9c6.5-6.6,13-13.3,19.4-20c3.3-3.5,6.8-6.7,10-10.3
		c1.3-1.4,2.6-2.9,3.7-4.4c2.3-3.2,2.9-6.7,1.9-10.4c-1.1-3.9-4.6-6.4-9.6-6.4c-15.4,0.1-30.8-0.4-46.1,0.3
		c-2.8,0.1-5.4,1.3-6.6,4.2c-0.5,1.3-0.7,2.7-0.6,4.1c0,3.8,2,6.4,5.7,7.3c1.3,0.3,2.6,0.5,4,0.5
		C339.6,118.2,349.5,118.2,359.7,118.2z M473.2,111.2c-0.2-1.5-0.2-3-0.6-4.3c-0.7-2.4-1.7-4.5-4.4-5.3c-1.7-0.5-3.3-0.7-5-0.5
		c-2.3,0.3-4,1.3-5.1,3.4c-1.1,2.1-1.3,4.4-1.3,6.8c0,18.9,0,37.7,0,56.6c0,1.5,0,3,0.4,4.4c0.5,1.7,1,3.5,2.6,4.7
		c2.2,1.6,4.7,1.6,7.2,1.2c2.6-0.4,4.3-1.9,5.2-4.4c0.6-1.8,1-3.6,1-5.5c0-12.3,0-24.7,0-37c0-0.7,0.2-1.2,0.9-1.6
		c4.8-2.9,9.6-6,14.4-8.9c1.8-1.1,3.5-2.7,5.8-2.8c2.4,0,4.8-0.2,7.2,0.1c2.9,0.4,3.7,1.7,4.1,4.3c0.5,3.2,0.5,6.5,0.6,9.7
		c0.1,3.7,0.2,7.4,0.4,11.1c0.1,4.1,0.2,8.3,0.4,12.4c0,0.5-0.2,0.8-0.6,1.1c-1.2,0.9-2.3,1.8-3.3,3c-3.2,4.2-4,8.8-2.8,13.8
		c0.9,3.6,3,6.3,5.9,8.5c3.6,2.7,7.6,3.5,12,2.7c3.5-0.6,6.3-2.3,8.6-4.9c3.4-3.8,4.7-8.3,3.9-13.2c-0.8-4.5-3.2-8-7.1-10.5
		c-0.3-0.2-0.5-0.2-0.5-0.7c0.2-2.8-0.2-5.6-0.2-8.5c0-2.5-0.2-5-0.2-7.5c0-2.6-0.3-5.1-0.3-7.7c-0.1-4.7-0.3-9.3-0.8-14
		c-0.2-1.9-0.6-3.7-1.4-5.4c-1.2-2.5-2.8-4.5-5-6.3c-3.6-3-7.6-4.6-12.2-4.7c-3.4-0.1-6.8-0.1-10.2,0c-2.3,0.1-4.6,0.5-6.7,1.6
		c-2.4,1.3-4.9,2.6-7.1,4.2C477,108.7,475.1,110,473.2,111.2z M280.1,139.4c0-6.6,0-13.3,0-19.9c0-1,0.2-1.4,1.3-1.3
		c4.5,0.1,9,0,13.6,0c2,0,4-0.5,5.7-1.5c2.1-1.2,3.1-3,3.1-5.4c0-0.7,0-1.4,0-2c0.1-3-1.3-5.1-4.1-6.3c-1.5-0.6-3.1-1-4.8-1
		c-4.5,0-9-0.1-13.6,0c-1,0-1.3-0.3-1.3-1.3c0-7.3,0-14.5,0-21.8c0-2-0.2-4-0.9-5.9c-0.8-2.4-2.4-4-4.9-4.5
		c-1.2-0.2-2.4-0.1-3.6-0.1c-2.6,0-4.6,1.2-5.8,3.5c-1,1.9-1.3,4-1.3,6.1c0,7.5,0,14.9,0,22.4c0,1.2-0.3,1.5-1.5,1.5
		c-2.7-0.1-5.4-0.2-8.1,0.7c-1.5,0.5-3,1.3-3.8,2.7c-2.4,4-1.8,11.1,4.9,12.5c2.5,0.5,5,0.4,7.5,0.4c0.7,0,1,0.1,1,1
		c0,13.8,0,27.6,0,41.5c0,3.1,0.6,6.1,1.8,8.9c1.8,4.1,5,6.4,9.2,7.6c2.7,0.8,5.5,0.8,8.3,0.7c3.4-0.1,6.7,0.3,10.1-0.2
		c3-0.5,5.6-1.7,6.6-5c0.4-1.5,0.4-2.9,0.2-4.5c-0.3-2.2-1.1-4-3-5.1c-1.9-1.1-4-1.6-6.2-1.6c-2.7,0-5.4,0-8.2,0
		c-2.4,0-2.5-0.1-2.5-2.5C280.1,152.5,280.1,146,280.1,139.4z M99.6,143.9c0-8.2,0-16.4,0-24.6c0-0.9,0.3-1.2,1.2-1.2
		c2.6,0.1,5.3,0,7.9,0c1.3,0,2.5-0.1,3.6-0.5c2.2-0.7,4.2-1.6,5.2-4c0.8-2,0.7-4,0.4-6c-0.4-2.3-1.8-3.8-3.9-4.7
		c-2-0.9-4.1-1.1-6.3-1.2c-2.4-0.1-4.7,0-7.1,0c-0.8,0-1.1-0.2-1.1-1c0.1-2.1,0-4.2,0-6.4c0-1.9,0.1-3.7,0.8-5.4
		c1-2.3,2.5-3.6,5.1-3.7c2.5,0,5-0.1,7.4-0.1c2,0,4,0,6-0.4c6.2-1.3,7.8-6.8,5.7-11.6c-1.2-2.7-3.5-3.5-6-4
		c-3.9-0.8-7.9-0.3-11.8-0.3c-2.3,0-4.6,0.3-6.8,0.7c-4.1,0.8-7.2,3.3-10.1,6.1c-4.5,4.4-6.3,9.9-6.6,16c-0.2,3.1-0.1,6.1-0.1,9.2
		c0,0.6-0.1,0.9-0.8,0.9c-2.2,0-4.4-0.1-6.5,0.2c-2.1,0.4-4.1,0.9-5.6,2.6c-1.5,1.7-1.6,3.8-1.6,5.9c-0.1,3.4,2,5.9,5.1,6.9
		c2.6,0.9,5.3,0.7,8,0.6c1.2,0,1.5,0.2,1.5,1.5c0,15.7,0,31.4,0,47.1c0,1.6-0.1,3.1,0.2,4.7c0.7,4.1,2.4,6.6,6.8,7.1
		c4.6,0.5,7.7-1.4,8.9-5.8c0.4-1.5,0.5-3,0.5-4.5C99.6,160.2,99.6,152,99.6,143.9z M154,113.5c0.1-1.8,0-3.3-0.2-4.7
		c-0.3-2.2-0.9-4.2-2.6-5.8c-1.3-1.2-2.9-1.6-4.6-1.8c-2.7-0.2-5.3,0.1-7,2.5c-1.3,1.7-1.9,3.7-1.9,5.9c-0.1,6.6-0.1,13.1-0.1,19.7
		c0,8.6,0,17.3,0,25.9c0,0.7-0.1,1-0.8,1.5c-3.9,2.8-6.2,6.6-6.6,11.5c-0.5,5.6,1.5,10.2,5.8,13.7c3.1,2.6,6.8,3.6,10.9,3.3
		c7.8-0.6,14.2-6.8,14.4-15.1c0.2-5.6-2.2-10-6.7-13.2c-0.4-0.3-0.7-0.5-0.7-1.1c0-6.6,0-13.1,0-19.7c0-0.4,0-0.7,0.3-1
		c1.3-1.1,2.5-2.2,3.7-3.3c2.2-1.8,4.3-3.8,6.4-5.7c1.9-1.7,3.9-3.4,5.7-5.2c1.8-1.8,3.9-2.9,6.6-2.8c1.6,0.1,3.2,0.1,4.8-0.2
		c2.4-0.5,4.6-1.4,5.9-3.6c1.2-1.9,1.1-4.1,0.8-6.2c-0.3-2-1.2-3.7-3.2-4.7c-1.6-0.8-3.2-1.2-5-1.4c-3.5-0.4-7.1-0.5-10.5,0.2
		c-4,0.8-7.1,3.2-10,5.9C157.9,109.9,156.1,111.6,154,113.5z M433.7,139.5c0-9,0-18.1,0-27.1c0-0.9,0-1.8-0.1-2.7
		c-0.4-4.1-2.5-6.5-6.2-7.4c-1-0.2-2.1-0.3-3.2-0.4c-4.2,0-8.3,0-12.5,0c-1.3,0-2.6,0.2-3.8,0.5c-1.7,0.5-3.3,1.2-4.4,2.7
		c-3.3,4.7-1,11.1,4.5,12.6c2.6,0.7,5.3,0.4,8,0.4c1.1,0,1.3,0.3,1.3,1.4c0,16.2,0,32.4,0,48.5c0,1.3-0.1,2.5,0.2,3.8
		c0.6,2.5,1.5,4.8,4,6c1.9,0.9,3.9,0.8,5.9,0.5c2.3-0.3,3.9-1.5,4.9-3.6c0.9-2.1,1.4-4.3,1.4-6.6
		C433.7,158.7,433.7,149.1,433.7,139.5z M231.6,139.8c0-9.3,0-18.5,0-27.8c0-1.1-0.1-2.2-0.3-3.2c-0.6-3.4-2.4-5.7-5.9-6.5
		c-1-0.2-2-0.4-3-0.4c-5.1,0-10.2-0.3-15.3,0.2c-2.4,0.3-4.7,1.1-6.1,3.4c-3,4.9-0.5,10.9,5,12.3c2.5,0.6,5,0.4,7.5,0.4
		c1.6,0,1.6,0,1.6,1.6c0,15.9,0,31.9,0,47.8c0,1.5-0.1,3.1,0.3,4.6c0.6,2.2,1.4,4.2,3.5,5.5c1.9,1.2,3.9,1.1,6,0.9
		c2.6-0.3,4.5-1.7,5.5-4.3c0.8-2.1,1.1-4.1,1.1-6.3C231.6,158.6,231.6,149.2,231.6,139.8z M205.1,75.4c0,8.7,7,15.6,15.6,15.6
		c8.5,0,15.6-7,15.6-15.4c0-8.8-6.9-15.8-15.6-15.8C212,59.7,205.1,66.7,205.1,75.4z M438.3,75.4c0.5-7.2-5.8-15.6-15.5-15.6
		c-8,0-15.4,6.1-15.6,15.2c-0.2,9.5,7.4,16,15.6,16C432.4,90.9,438.8,82.6,438.3,75.4z"/>
	<path class="st1" d="M0.3,0c0,84.5,0,168.9,0,253.4c0,0.5,0,1,0,1.4c0,5.2,0,10.4-0.1,15.6c0,1.2,0.2,1.5,1.5,1.5
		c225.7,0,451.4,0,677,0c0.5,0,1,0,1.4-0.1c0,0.1,0.1,0.1,0.2,0.1c-0.1,0.1,0.1,0.2-0.1,0.2c-0.3,0-0.6,0-1,0
		c-226.1,0-452.1,0-678.2,0c-0.9,0-1.1-0.2-1.1-1.1c0-90,0-180,0-270C0.1,0.8-0.2,0.3,0.3,0z"/>
	<path class="st2" d="M680.2,271.8c-0.5,0-1,0.1-1.4,0.1c-225.7,0-451.4,0-677,0c-1.2,0-1.5-0.3-1.5-1.5c0.1-5.2,0.1-10.4,0.1-15.6
		c225.9,0,451.7,0,677.6,0c2.5,0,2.2-0.3,2.2,2.2C680.2,262,680.2,266.9,680.2,271.8z"/>
	<path class="st1" d="M595.7,108.8c0.4-2.2,0.9-4.1,2.3-5.6c1.8-1.9,4.2-2.1,6.6-2c0.9,0.1,1.8,0.2,2.7,0.6c2.7,1.1,3.7,3.3,4.3,5.9
		c0.3,1.4,0.4,2.8,0.4,4.2c0,24.6,0,49.2,0,73.8c0,2.6-0.2,5.1-0.8,7.7c-0.8,3.4-2.8,6.2-5.3,8.6c-2.4,2.3-5,4.4-7.6,6.3
		c-4,2.8-8.5,3.9-13.3,3.9c-8,0-16,0-24,0c-1.9,0-3.8-0.3-5.7-1.1c-2-0.8-3.1-2.4-3.6-4.2c-0.7-2.5-0.5-5,0.8-7.3
		c0.8-1.4,2-2.3,3.5-2.8c1.8-0.6,3.7-0.8,5.6-0.8c6.7,0,13.4,0,20.1,0c2,0,3.9,0,5.8-0.8c4.6-2,8.4-5.2,8.2-11
		c-0.2-4.2,0-8.4,0-12.8c-1.2,0.9-2.2,1.8-3.2,2.5c-3.6,2.7-7.5,4.1-12,4.1c-3.5,0-7,0.2-10.4-0.1c-4.1-0.3-8-1.5-11.4-4
		c-2.3-1.7-4.5-3.4-6.6-5.4c-1.9-1.9-3.8-3.8-4.9-6.3c-0.7-1.7-1.2-3.3-1.5-5.1c-0.5-2.9-0.3-5.7-0.3-8.6c0-7.5-0.1-15,0-22.5
		c0.1-3.9,0.9-7.6,3.3-10.8c1.4-1.9,3.1-3.5,4.9-5c2.7-2.2,5.3-4.5,8.5-6c2.6-1.2,5.2-1.7,8.1-2c3.2-0.3,6.4-0.2,9.5-0.2
		c4.8-0.1,9.2,1.3,13.1,4.2C593.8,106.8,594.8,107.5,595.7,108.8z M561.6,139.5C561.6,139.5,561.7,139.5,561.6,139.5
		c0,3.7,0,7.4,0,11.1c0,3,1.1,5.4,3.4,7.4c2.8,2.3,5.9,3.4,9.4,3.5c3.6,0.1,7.2,0.1,10.3-2.4c3.3-2.6,6.5-5.5,9.3-8.6
		c1.1-1.2,1.6-2.7,1.6-4.3c0-4.2,0-8.3,0-12.5c0-1.7-0.4-3.2-1.5-4.5c-2.2-2.6-4.8-5-7.4-7.3c-1.1-1-2.4-1.9-3.7-2.6
		c-3.8-2-7.8-1.2-11.8-0.8c-2.4,0.2-4.4,1.6-6.2,3c-2,1.6-3.4,3.7-3.4,6.3C561.6,131.8,561.6,135.6,561.6,139.5z"/>
	<path class="st1" d="M359.7,118.2c-10.1,0-20,0-29.9,0c-1.4,0-2.7-0.2-4-0.5c-3.7-0.9-5.7-3.5-5.7-7.3c0-1.4,0.1-2.8,0.6-4.1
		c1.2-3,3.8-4.1,6.6-4.2c15.4-0.7,30.7-0.2,46.1-0.3c4.9,0,8.4,2.5,9.6,6.4c1,3.7,0.4,7.2-1.9,10.4c-1.1,1.6-2.4,3-3.7,4.4
		c-3.2,3.5-6.7,6.8-10,10.3c-6.4,6.8-12.9,13.4-19.4,20c-2.2,2.3-4.5,4.6-6.7,6.9c-0.3,0.3-0.8,0.6-0.8,1.2c0.4,0,0.9,0,1.3,0
		c7.6,0,15.1,0,22.7,0c1.4,0,2.1-0.5,2.9-1.5c2.6-3.6,6.1-5.5,10.5-6c2.7-0.3,5.3,0,7.8,1.1c4.8,2,8,5.6,9.2,10.7
		c1.2,5.1,0.2,9.7-3.2,13.7c-2.8,3.3-6.4,5.1-10.7,5.5c-4,0.4-7.5-0.8-10.7-3.1c-1.3-0.9-2.4-2.1-3.3-3.5c-0.3-0.5-0.6-0.7-1.2-0.7
		c-13.6,0-27.3,0.1-40.9,0c-2,0-3.8-0.9-5.4-2.3c-2.7-2.4-3.5-5.4-3.1-8.8c0.3-2.7,1.5-5,3.2-7.2c2.7-3.3,5.8-6.1,8.7-9.2
		c3.1-3.3,6.4-6.4,9.4-9.7c4.8-5.1,9.7-9.9,14.6-14.9C354.6,123.4,357,120.9,359.7,118.2z M379.7,162.6c-3.7-0.4-7.1,3.3-7.1,7
		c0,3.9,3.2,7.2,7.1,7.1c3.5,0,7.3-2.9,7.1-7.6C386.7,166,383.5,162,379.7,162.6z"/>
	<path class="st1" d="M473.2,111.2c1.9-1.3,3.9-2.5,5.7-3.8c2.3-1.5,4.7-2.9,7.1-4.2c2.1-1.1,4.4-1.5,6.7-1.6
		c3.4-0.1,6.8-0.1,10.2,0c4.6,0.1,8.6,1.7,12.2,4.7c2.1,1.8,3.8,3.8,5,6.3c0.8,1.7,1.2,3.5,1.4,5.4c0.5,4.7,0.7,9.3,0.8,14
		c0,2.6,0.3,5.1,0.3,7.7c0,2.5,0.2,5,0.2,7.5c0,2.8,0.4,5.6,0.2,8.5c0,0.4,0.2,0.5,0.5,0.7c3.9,2.4,6.3,6,7.1,10.5
		c0.9,5-0.4,9.4-3.9,13.2c-2.3,2.6-5.2,4.2-8.6,4.9c-4.4,0.8-8.4,0-12-2.7c-2.9-2.2-5-4.9-5.9-8.5c-1.2-5-0.4-9.6,2.8-13.8
		c0.9-1.2,2.1-2.1,3.3-3c0.4-0.3,0.6-0.6,0.6-1.1c-0.1-4.1-0.2-8.3-0.4-12.4c-0.1-3.7-0.2-7.4-0.4-11.1c-0.1-3.3-0.1-6.5-0.6-9.7
		c-0.4-2.6-1.2-3.9-4.1-4.3c-2.4-0.3-4.8-0.2-7.2-0.1c-2.3,0-4,1.7-5.8,2.8c-4.8,2.9-9.6,6-14.4,8.9c-0.7,0.4-0.9,0.8-0.9,1.6
		c0,12.3,0,24.7,0,37c0,1.9-0.3,3.7-1,5.5c-0.9,2.5-2.6,3.9-5.2,4.4c-2.5,0.4-5,0.4-7.2-1.2c-1.6-1.2-2.1-2.9-2.6-4.7
		c-0.4-1.4-0.4-2.9-0.4-4.4c0-18.9,0-37.7,0-56.6c0-2.4,0.2-4.7,1.3-6.8c1.1-2.1,2.8-3.1,5.1-3.4c1.8-0.2,3.4,0,5,0.5
		c2.7,0.8,3.7,3,4.4,5.3C473,108.3,473,109.7,473.2,111.2z M515.3,162.6c-4.4-0.4-7.1,3.4-7.2,6.8c-0.2,4,3.5,7.3,6.9,7.4
		c4.3,0.1,7.5-3.7,7.4-6.8C522.2,165.4,519.6,162.6,515.3,162.6z"/>
	<path class="st1" d="M280.1,139.4c0,6.6,0,13.1,0,19.7c0,2.4,0.1,2.5,2.5,2.5c2.7,0,5.4,0,8.2,0c2.2,0,4.3,0.5,6.2,1.6
		c2,1.1,2.8,2.9,3,5.1c0.2,1.5,0.2,3-0.2,4.5c-1,3.3-3.6,4.5-6.6,5c-3.3,0.6-6.7,0.2-10.1,0.2c-2.8,0.1-5.6,0-8.3-0.7
		c-4.2-1.2-7.5-3.5-9.2-7.6c-1.2-2.9-1.8-5.8-1.8-8.9c0-13.8,0-27.6,0-41.5c0-0.8-0.3-1-1-1c-2.5,0-5,0.1-7.5-0.4
		c-6.6-1.3-7.3-8.4-4.9-12.5c0.9-1.4,2.3-2.2,3.8-2.7c2.6-0.9,5.4-0.8,8.1-0.7c1.2,0,1.5-0.2,1.5-1.5c-0.1-7.5,0-14.9,0-22.4
		c0-2.1,0.3-4.2,1.3-6.1c1.2-2.4,3.1-3.5,5.8-3.5c1.2,0,2.4-0.1,3.6,0.1c2.5,0.5,4,2.1,4.9,4.5c0.7,1.9,0.8,3.9,0.9,5.9
		c0,7.3,0,14.5,0,21.8c0,1,0.3,1.3,1.3,1.3c4.5,0,9,0,13.6,0c1.7,0,3.3,0.4,4.8,1c2.7,1.1,4.1,3.3,4.1,6.3c0,0.7,0,1.4,0,2
		c0,2.4-1,4.2-3.1,5.4c-1.7,1-3.7,1.5-5.7,1.5c-4.5,0-9,0.1-13.6,0c-1.1,0-1.3,0.3-1.3,1.3C280.2,126.2,280.1,132.8,280.1,139.4z"/>
	<path class="st1" d="M99.6,143.9c0,8.1,0,16.2,0,24.3c0,1.5-0.1,3-0.5,4.5c-1.2,4.4-4.3,6.3-8.9,5.8c-4.4-0.5-6-2.9-6.8-7.1
		c-0.3-1.6-0.2-3.1-0.2-4.7c0-15.7,0-31.4,0-47.1c0-1.3-0.4-1.5-1.5-1.5c-2.7,0-5.4,0.2-8-0.6c-3.1-1-5.1-3.5-5.1-6.9
		c0-2.1,0.1-4.2,1.6-5.9c1.5-1.7,3.5-2.2,5.6-2.6c2.2-0.4,4.4-0.3,6.5-0.2c0.7,0,0.8-0.3,0.8-0.9c0-3.1,0-6.2,0.1-9.2
		c0.3-6.1,2.1-11.6,6.6-16c2.9-2.8,6-5.3,10.1-6.1c2.2-0.4,4.5-0.8,6.8-0.7c3.9,0,7.9-0.5,11.8,0.3c2.5,0.5,4.8,1.3,6,4
		c2.1,4.8,0.5,10.3-5.7,11.6c-2,0.4-4,0.3-6,0.4c-2.5,0-5,0.1-7.4,0.1c-2.6,0-4.1,1.4-5.1,3.7c-0.8,1.8-0.8,3.6-0.8,5.4
		c0,2.1,0,4.2,0,6.4c0,0.9,0.3,1.1,1.1,1c2.4-0.1,4.7-0.1,7.1,0c2.1,0.1,4.3,0.3,6.3,1.2c2.1,1,3.5,2.4,3.9,4.7c0.3,2,0.4,4-0.4,6
		c-1,2.4-3,3.3-5.2,4c-1.2,0.4-2.4,0.5-3.6,0.5c-2.6-0.1-5.3,0-7.9,0c-0.9,0-1.2,0.2-1.2,1.2C99.6,127.6,99.6,135.7,99.6,143.9z"/>
	<path class="st1" d="M154,113.5c2-1.9,3.8-3.6,5.6-5.3c2.9-2.7,6-5.1,10-5.9c3.5-0.7,7-0.6,10.5-0.2c1.8,0.2,3.4,0.6,5,1.4
		c2,1,2.9,2.7,3.2,4.7c0.3,2.1,0.4,4.3-0.8,6.2c-1.4,2.2-3.5,3.1-5.9,3.6c-1.6,0.3-3.2,0.3-4.8,0.2c-2.7-0.2-4.8,0.9-6.6,2.8
		c-1.8,1.8-3.8,3.5-5.7,5.2c-2.1,1.9-4.2,3.8-6.4,5.7c-1.3,1.1-2.5,2.2-3.7,3.3c-0.3,0.3-0.3,0.6-0.3,1c0,6.6,0,13.1,0,19.7
		c0,0.6,0.3,0.8,0.7,1.1c4.5,3.3,6.9,7.7,6.7,13.2c-0.3,8.3-6.6,14.5-14.4,15.1c-4.1,0.3-7.8-0.7-10.9-3.3
		c-4.3-3.5-6.2-8.1-5.8-13.7c0.4-4.9,2.7-8.7,6.6-11.5c0.6-0.5,0.8-0.8,0.8-1.5c0-8.6,0-17.3,0-25.9c0-6.6,0-13.1,0.1-19.7
		c0-2.1,0.6-4.2,1.9-5.9c1.8-2.3,4.4-2.7,7-2.5c1.6,0.1,3.2,0.5,4.6,1.8c1.7,1.6,2.3,3.6,2.6,5.8C154.1,110.3,154.1,111.7,154,113.5
		z M146,162.6c-3.7-0.5-7.2,3.1-7.2,6.9c0,3.8,3.3,7.2,7.1,7.2c4.4,0,7.2-3.2,7.1-8.2C152.9,165.7,149.6,162.2,146,162.6z"/>
	<path class="st1" d="M433.7,139.5c0,9.6,0,19.2,0,28.8c0,2.3-0.4,4.5-1.4,6.6c-0.9,2-2.6,3.3-4.9,3.6c-2,0.3-4,0.3-5.9-0.5
		c-2.5-1.2-3.5-3.5-4-6c-0.3-1.3-0.2-2.5-0.2-3.8c0-16.2,0-32.4,0-48.5c0-1-0.2-1.4-1.3-1.4c-2.7,0-5.3,0.3-8-0.4
		c-5.5-1.5-7.8-7.9-4.5-12.6c1.1-1.5,2.7-2.2,4.4-2.7c1.2-0.3,2.5-0.5,3.8-0.5c4.2,0,8.3,0,12.5,0c1.1,0,2.1,0.1,3.2,0.4
		c3.8,0.9,5.8,3.3,6.2,7.4c0.1,0.9,0.1,1.8,0.1,2.7C433.7,121.4,433.7,130.4,433.7,139.5z"/>
	<path class="st1" d="M231.6,139.8c0,9.4,0,18.8,0,28.2c0,2.2-0.4,4.2-1.1,6.3c-1,2.6-2.9,4-5.5,4.3c-2,0.2-4.1,0.3-6-0.9
		c-2-1.3-2.9-3.2-3.5-5.5c-0.4-1.5-0.2-3.1-0.3-4.6c0-15.9,0-31.9,0-47.8c0-1.6,0-1.6-1.6-1.6c-2.5,0-5,0.2-7.5-0.4
		c-5.5-1.4-8-7.3-5-12.3c1.4-2.2,3.6-3.1,6.1-3.4c5.1-0.6,10.2-0.2,15.3-0.2c1,0,2,0.2,3,0.4c3.5,0.8,5.3,3.1,5.9,6.5
		c0.2,1.1,0.3,2.1,0.3,3.2C231.5,121.3,231.6,130.5,231.6,139.8z"/>
	<path class="st1" d="M205.1,75.4c0-8.7,6.9-15.6,15.6-15.6c8.7,0,15.6,7,15.6,15.8c0,8.4-7,15.4-15.6,15.4
		C212.1,90.9,205.1,84,205.1,75.4z M227.7,75.2c0.4-3.1-2.8-6.9-6.2-6.9c-4.8,0-7.9,2.7-8,6.9c0,4,3.3,7.2,7.1,7.2
		C223.9,82.5,227.9,80.1,227.7,75.2z"/>
	<path class="st1" d="M438.3,75.4c0.5,7.3-5.9,15.6-15.6,15.6c-8.1,0-15.8-6.5-15.6-16c0.2-9.1,7.7-15.2,15.6-15.2
		C432.6,59.8,438.9,68.2,438.3,75.4z M415.7,75.3c-0.2,4,3.4,7.2,6.8,7.2c4.6,0,7.4-3.3,7.4-6.9c0-4.2-3.1-7.6-7.8-7.3
		C418.7,68.5,415.7,71.6,415.7,75.3z"/>
	<path class="st0" d="M561.6,139.5c0-3.8-0.1-7.7,0-11.5c0-2.6,1.4-4.7,3.4-6.3c1.8-1.5,3.8-2.8,6.2-3c4-0.4,8-1.1,11.8,0.8
		c1.3,0.7,2.6,1.6,3.7,2.6c2.6,2.3,5.2,4.6,7.4,7.3c1.1,1.3,1.5,2.8,1.5,4.5c0,4.2,0,8.3,0,12.5c0,1.6-0.5,3.1-1.6,4.3
		c-2.8,3.2-6,6-9.3,8.6c-3.1,2.4-6.6,2.5-10.3,2.4c-3.6-0.1-6.7-1.2-9.4-3.5c-2.3-2-3.4-4.4-3.4-7.4
		C561.7,146.9,561.7,143.2,561.6,139.5C561.7,139.5,561.6,139.5,561.6,139.5z"/>
	<path class="st2" d="M379.7,162.6c3.8-0.5,7.1,3.5,7.2,6.5c0.2,4.7-3.6,7.6-7.1,7.6c-3.9,0-7.1-3.2-7.1-7.1
		C372.5,165.9,375.9,162.2,379.7,162.6z"/>
	<path class="st2" d="M515.3,162.6c4.3,0,6.9,2.9,7,7.4c0.1,3.1-3.1,6.9-7.4,6.8c-3.4-0.1-7-3.4-6.9-7.4
		C508.2,166,511,162.2,515.3,162.6z"/>
	<path class="st2" d="M146,162.6c3.6-0.4,6.9,3.1,7,6c0.1,5-2.7,8.2-7.1,8.2c-3.8,0-7.1-3.4-7.1-7.2
		C138.8,165.6,142.2,162.1,146,162.6z"/>
	<path class="st2" d="M227.7,75.2c0.1,4.8-3.8,7.3-7.1,7.3c-3.8-0.1-7.1-3.2-7.1-7.2c0-4.2,3.1-7,8-6.9
		C224.9,68.3,228.2,72.1,227.7,75.2z"/>
	<path class="st2" d="M415.7,75.3c0-3.7,3-6.8,6.4-7c4.7-0.4,7.9,3.1,7.8,7.3c0,3.6-2.8,6.9-7.4,6.9
		C419.2,82.5,415.5,79.3,415.7,75.3z"/>
</g>
</svg>
